<svg width="1116" height="609" viewBox="0 0 1116 609" fill="none" xmlns="http://www.w3.org/2000/svg">
<rect width="1116" height="609" fill="white"/>
<path fill-rule="evenodd" clip-rule="evenodd" d="M643.75 239.25H472.25V337.25H643.75V239.25ZM472.25 227C469.001 227 465.885 228.291 463.588 230.588C461.291 232.885 460 236.001 460 239.25V337.25C460 340.499 461.291 343.615 463.588 345.912C465.885 348.209 469.001 349.5 472.25 349.5H643.75C646.999 349.5 650.115 348.209 652.412 345.912C654.709 343.615 656 340.499 656 337.25V239.25C656 236.001 654.709 232.885 652.412 230.588C650.115 228.291 646.999 227 643.75 227H472.25Z" fill="#3D218D"/>
<path d="M619.25 239.25C619.25 245.748 621.831 251.979 626.426 256.574C631.021 261.169 637.252 263.75 643.75 263.75V239.25H619.25ZM496.75 239.25C496.75 245.748 494.169 251.979 489.574 256.574C484.979 261.169 478.748 263.75 472.25 263.75V239.25H496.75ZM619.25 337.25C619.25 330.752 621.831 324.521 626.426 319.926C631.021 315.331 637.252 312.75 643.75 312.75V337.25H619.25ZM496.75 337.25C496.75 330.752 494.169 324.521 489.574 319.926C484.979 315.331 478.748 312.75 472.25 312.75V337.25H496.75ZM582.5 288.25C582.5 294.748 579.919 300.979 575.324 305.574C570.729 310.169 564.498 312.75 558 312.75C551.502 312.75 545.271 310.169 540.676 305.574C536.081 300.979 533.5 294.748 533.5 288.25C533.5 281.752 536.081 275.521 540.676 270.926C545.271 266.331 551.502 263.75 558 263.75C564.498 263.75 570.729 266.331 575.324 270.926C579.919 275.521 582.5 281.752 582.5 288.25Z" fill="#3D218D"/>
<rect width="94" height="94" transform="translate(515 243)" fill="white"/>
<path d="M567.875 301.75C558.451 301.75 550.066 300.924 542.723 299.271C535.379 297.619 530.544 295.538 528.219 293.029C536.542 294.926 545.844 295.875 556.125 295.875C563.652 295.875 570.797 295.355 577.56 294.314C584.322 293.274 589.784 291.836 593.945 290C598.107 288.164 600.188 286.206 600.188 284.125V278.25H603.125C604.9 278.617 606.323 279.367 607.394 280.499C608.465 281.631 609 282.84 609 284.125V290C609 292.142 607.164 294.116 603.492 295.921C599.82 297.726 594.833 299.149 588.529 300.189C582.226 301.23 575.341 301.75 567.875 301.75ZM562 278.25C556.064 278.25 550.617 277.929 545.66 277.286C540.703 276.644 536.756 275.879 533.818 274.991C530.881 274.104 528.387 273.155 526.337 272.146C524.287 271.136 522.864 270.264 522.068 269.529C521.273 268.795 520.875 268.275 520.875 267.969V264.389C523.996 266.714 529.382 268.627 537.031 270.126C544.681 271.625 553.004 272.375 562 272.375C570.996 272.375 579.319 271.625 586.969 270.126C594.618 268.627 600.004 266.714 603.125 264.389V266.5C603.125 268.581 601.289 270.524 597.617 272.329C593.945 274.134 588.958 275.573 582.654 276.644C576.351 277.715 569.466 278.25 562 278.25ZM562 266.5C554.534 266.5 547.649 265.965 541.346 264.894C535.042 263.823 530.055 262.384 526.383 260.579C522.711 258.774 520.875 256.815 520.875 254.704C520.875 252.593 522.711 250.634 526.383 248.829C530.055 247.024 535.042 245.601 541.346 244.561C547.649 243.52 554.534 243 562 243C569.466 243 576.351 243.52 582.654 244.561C588.958 245.601 593.945 247.024 597.617 248.829C601.289 250.634 603.125 252.593 603.125 254.704C603.125 256.815 601.289 258.774 597.617 260.579C593.945 262.384 588.958 263.823 582.654 264.894C576.351 265.965 569.466 266.5 562 266.5ZM517.938 272.375C517.938 274.456 520.018 276.414 524.18 278.25C528.341 280.086 533.803 281.524 540.565 282.564C547.328 283.605 554.473 284.125 562 284.125C568.854 284.125 575.402 283.681 581.645 282.794C587.887 281.907 593.089 280.698 597.25 279.168C597.189 279.29 597.082 279.489 596.929 279.765C596.776 280.04 596.301 280.545 595.506 281.279C594.71 282.014 593.746 282.717 592.614 283.391C591.482 284.064 589.83 284.829 587.657 285.686C585.485 286.542 583.037 287.261 580.313 287.843C577.59 288.424 574.117 288.929 569.895 289.357C565.672 289.786 561.082 290 556.125 290C548.659 290 541.774 289.465 535.471 288.394C529.167 287.323 524.18 285.884 520.508 284.079C516.836 282.274 515 280.331 515 278.25V272.375C515 270.906 515.979 269.468 517.938 268.061V272.375ZM517.938 303.311V307.625C517.938 309.706 520.018 311.664 524.18 313.5C528.341 315.336 533.803 316.774 540.565 317.814C547.328 318.855 554.473 319.375 562 319.375C568.732 319.375 575.203 318.947 581.415 318.09C587.627 317.233 592.844 316.04 597.066 314.51C596.148 317.57 591.773 320.125 583.939 322.175C576.106 324.225 566.835 325.25 556.125 325.25C548.659 325.25 541.774 324.73 535.471 323.689C529.167 322.649 524.18 321.226 520.508 319.421C516.836 317.616 515 315.642 515 313.5V307.625C515 306.156 515.979 304.718 517.938 303.311ZM567.875 307.625C574.668 307.625 581.17 307.181 587.382 306.294C593.593 305.407 598.78 304.198 602.941 302.668C602.085 305.728 597.74 308.298 589.906 310.379C582.073 312.46 572.771 313.5 562 313.5C554.534 313.5 547.649 312.98 541.346 311.939C535.042 310.899 530.055 309.476 526.383 307.671C522.711 305.866 520.875 303.892 520.875 301.75V295.875C520.875 294.529 521.762 293.152 523.537 291.744C524.455 292.05 525.251 292.295 525.924 292.479C524.761 293.641 524.18 294.773 524.18 295.875C524.18 297.956 526.23 299.914 530.33 301.75C534.43 303.586 539.846 305.024 546.578 306.064C553.31 307.105 560.409 307.625 567.875 307.625ZM600.188 319.375V315.061C602.146 316.468 603.125 317.906 603.125 319.375V325.25C603.125 327.392 601.289 329.366 597.617 331.171C593.945 332.976 588.958 334.399 582.654 335.439C576.351 336.48 569.466 337 562 337C551.229 337 541.927 335.96 534.094 333.879C526.26 331.798 521.915 329.228 521.059 326.168C525.22 327.698 530.407 328.907 536.618 329.794C542.83 330.681 549.332 331.125 556.125 331.125C563.652 331.125 570.797 330.605 577.56 329.564C584.322 328.524 589.784 327.086 593.945 325.25C598.107 323.414 600.188 321.456 600.188 319.375Z" fill="#3D218D"/>
</svg>
