<svg width="1116" height="609" viewBox="0 0 1116 609" fill="none" xmlns="http://www.w3.org/2000/svg">
<rect width="1116" height="609" fill="white"/>
<path d="M399.68 397.08C400.053 397.613 400.24 398.173 400.24 398.76C400.24 399.56 399.947 400.2 399.36 400.68C398.827 401.107 398.213 401.32 397.52 401.32C396.827 401.32 396.24 401.027 395.76 400.44L373.44 372.36L362.56 382.6V398.52C362.507 399.267 362.24 399.88 361.76 400.36C361.28 400.787 360.693 401 360 401C359.253 401 358.64 400.787 358.16 400.36C357.733 399.88 357.52 399.267 357.52 398.52V347.48C357.52 346.733 357.76 346.147 358.24 345.72C358.72 345.24 359.333 345 360.08 345C360.827 345 361.413 345.24 361.84 345.72C362.32 346.147 362.56 346.733 362.56 347.48V376.52L394.88 345.96C395.36 345.427 395.947 345.16 396.64 345.16C397.28 345.16 397.813 345.4 398.24 345.88C398.72 346.36 398.96 346.893 398.96 347.48C398.96 348.12 398.72 348.68 398.24 349.16L377.28 368.76L399.68 397.08ZM446.346 380.52C446.346 384.52 445.466 388.147 443.706 391.4C441.946 394.653 439.519 397.213 436.426 399.08C433.332 400.893 429.892 401.8 426.106 401.8C422.319 401.8 418.879 400.893 415.786 399.08C412.692 397.213 410.266 394.653 408.506 391.4C406.746 388.147 405.866 384.52 405.866 380.52C405.866 376.52 406.746 372.893 408.506 369.64C410.266 366.387 412.692 363.827 415.786 361.96C418.879 360.093 422.319 359.16 426.106 359.16C429.892 359.16 433.332 360.093 436.426 361.96C439.519 363.827 441.946 366.387 443.706 369.64C445.466 372.893 446.346 376.52 446.346 380.52ZM441.546 380.52C441.546 377.32 440.879 374.44 439.546 371.88C438.212 369.32 436.346 367.32 433.946 365.88C431.599 364.387 428.986 363.64 426.106 363.64C423.226 363.64 420.612 364.387 418.266 365.88C415.919 367.32 414.052 369.32 412.666 371.88C411.332 374.44 410.666 377.32 410.666 380.52C410.666 383.667 411.332 386.52 412.666 389.08C414.052 391.64 415.919 393.667 418.266 395.16C420.612 396.6 423.226 397.32 426.106 397.32C428.986 397.32 431.599 396.6 433.946 395.16C436.346 393.72 438.212 391.72 439.546 389.16C440.879 386.6 441.546 383.72 441.546 380.52ZM460.804 398.6C460.804 399.293 460.564 399.88 460.084 400.36C459.657 400.787 459.097 401 458.404 401C457.71 401 457.124 400.787 456.644 400.36C456.217 399.88 456.004 399.293 456.004 398.6V361.8C456.004 361.107 456.217 360.547 456.644 360.12C457.124 359.64 457.71 359.4 458.404 359.4C459.097 359.4 459.657 359.64 460.084 360.12C460.564 360.547 460.804 361.107 460.804 361.8V398.6ZM458.404 354.04C457.337 354.04 456.51 353.8 455.924 353.32C455.337 352.787 455.044 352.04 455.044 351.08V350.28C455.044 349.32 455.337 348.6 455.924 348.12C456.564 347.587 457.417 347.32 458.484 347.32C460.617 347.32 461.684 348.307 461.684 350.28V351.08C461.684 352.04 461.39 352.787 460.804 353.32C460.27 353.8 459.47 354.04 458.404 354.04ZM492.553 359.16C497.513 359.16 501.14 360.627 503.433 363.56C505.78 366.44 506.953 370.28 506.953 375.08V398.6C506.953 399.293 506.713 399.88 506.233 400.36C505.753 400.787 505.193 401 504.553 401C503.86 401 503.273 400.787 502.793 400.36C502.366 399.88 502.153 399.293 502.153 398.6V375.32C502.153 371.853 501.273 369.053 499.513 366.92C497.806 364.733 495.14 363.64 491.513 363.64C489.22 363.64 487.033 364.173 484.953 365.24C482.926 366.307 481.273 367.747 479.993 369.56C478.713 371.32 478.073 373.24 478.073 375.32V398.6C478.073 399.293 477.833 399.88 477.353 400.36C476.926 400.787 476.366 401 475.673 401C474.98 401 474.393 400.787 473.913 400.36C473.486 399.88 473.273 399.293 473.273 398.6V362.76C473.273 362.067 473.486 361.507 473.913 361.08C474.393 360.6 474.98 360.36 475.673 360.36C476.366 360.36 476.926 360.6 477.353 361.08C477.833 361.507 478.073 362.067 478.073 362.76V367.16C479.513 364.867 481.566 362.973 484.233 361.48C486.953 359.933 489.726 359.16 492.553 359.16ZM517.203 394.52C516.776 393.827 516.563 393.24 516.563 392.76C516.563 392.067 516.91 391.533 517.603 391.16C517.923 390.84 518.35 390.68 518.883 390.68C519.523 390.68 520.11 390.947 520.643 391.48C523.79 395.64 527.976 397.72 533.203 397.72C535.763 397.72 537.976 397.133 539.843 395.96C541.763 394.733 542.723 392.973 542.723 390.68C542.723 388.44 541.843 386.76 540.083 385.64C538.323 384.52 535.87 383.56 532.723 382.76C528.296 381.64 524.83 380.2 522.323 378.44C519.816 376.627 518.563 373.987 518.563 370.52C518.563 368.333 519.176 366.387 520.403 364.68C521.63 362.92 523.283 361.56 525.363 360.6C527.496 359.64 529.896 359.16 532.563 359.16C534.856 359.16 537.15 359.613 539.443 360.52C541.79 361.373 543.79 362.76 545.443 364.68C545.923 365.053 546.163 365.587 546.163 366.28C546.163 366.92 545.896 367.48 545.363 367.96C544.99 368.28 544.51 368.44 543.923 368.44C543.39 368.44 542.91 368.227 542.483 367.8C541.203 366.36 539.683 365.267 537.923 364.52C536.163 363.773 534.27 363.4 532.243 363.4C529.736 363.4 527.576 363.987 525.763 365.16C524.003 366.333 523.123 368.093 523.123 370.44C523.23 372.573 524.19 374.2 526.003 375.32C527.87 376.44 530.59 377.453 534.163 378.36C536.936 379.053 539.23 379.827 541.043 380.68C542.856 381.533 544.323 382.733 545.443 384.28C546.616 385.827 547.203 387.88 547.203 390.44C547.203 393.907 545.816 396.68 543.043 398.76C540.27 400.787 536.83 401.8 532.723 401.8C526.216 401.8 521.043 399.373 517.203 394.52ZM601.983 396.52C602.676 397.053 603.023 397.72 603.023 398.52C603.023 399.053 602.81 399.56 602.383 400.04C602.01 400.52 601.503 400.76 600.863 400.76C600.33 400.76 599.85 400.627 599.423 400.36L597.663 399C595.21 397.187 593.13 395.56 591.423 394.12C589.13 396.52 586.383 398.413 583.183 399.8C580.036 401.133 576.463 401.8 572.463 401.8C568.783 401.8 565.45 400.947 562.463 399.24C559.53 397.48 557.236 395.213 555.583 392.44C553.93 389.613 553.103 386.653 553.103 383.56C553.103 380.04 554.116 376.813 556.143 373.88C558.17 370.893 561.156 368.627 565.103 367.08C562.863 363.56 561.743 360.307 561.743 357.32C561.743 354.813 562.356 352.573 563.583 350.6C564.81 348.627 566.543 347.08 568.783 345.96C571.076 344.787 573.743 344.2 576.783 344.2C580.41 344.2 583.503 344.893 586.063 346.28C588.676 347.667 590.516 349.4 591.583 351.48C591.85 352.013 591.983 352.52 591.983 353C591.983 353.533 591.77 354.013 591.343 354.44C590.916 354.813 590.383 355 589.743 355C588.89 355 588.303 354.707 587.983 354.12C586.81 352.36 585.316 351 583.503 350.04C581.743 349.08 579.503 348.6 576.783 348.6C573.583 348.6 571.103 349.4 569.343 351C567.636 352.547 566.783 354.653 566.783 357.32C566.783 359.56 567.61 362.04 569.263 364.76C570.97 367.48 573.236 370.413 576.063 373.56C580.01 377.987 584.89 382.68 590.703 387.64C592.57 384.493 593.85 381.027 594.543 377.24C594.65 376.76 594.863 376.36 595.183 376.04C595.556 375.72 596.063 375.56 596.703 375.56C597.396 375.56 597.956 375.853 598.383 376.44C598.863 376.973 599.05 377.613 598.943 378.36C598.303 382.733 596.756 386.787 594.303 390.52C596.543 392.387 599.103 394.387 601.983 396.52ZM573.023 397.16C579.156 397.16 584.116 395.187 587.903 391.24C582.25 386.707 576.863 381.507 571.743 375.64C569.823 373.4 568.463 371.747 567.663 370.68C564.356 371.693 561.93 373.293 560.383 375.48C558.836 377.667 558.063 380.147 558.063 382.92C558.063 385.373 558.623 387.693 559.743 389.88C560.916 392.067 562.623 393.827 564.863 395.16C567.156 396.493 569.876 397.16 573.023 397.16ZM654.68 397.08C655.053 397.613 655.24 398.173 655.24 398.76C655.24 399.56 654.947 400.2 654.36 400.68C653.827 401.107 653.213 401.32 652.52 401.32C651.827 401.32 651.24 401.027 650.76 400.44L628.44 372.36L617.56 382.6V398.52C617.507 399.267 617.24 399.88 616.76 400.36C616.28 400.787 615.693 401 615 401C614.253 401 613.64 400.787 613.16 400.36C612.733 399.88 612.52 399.267 612.52 398.52V347.48C612.52 346.733 612.76 346.147 613.24 345.72C613.72 345.24 614.333 345 615.08 345C615.827 345 616.413 345.24 616.84 345.72C617.32 346.147 617.56 346.733 617.56 347.48V376.52L649.88 345.96C650.36 345.427 650.947 345.16 651.64 345.16C652.28 345.16 652.813 345.4 653.24 345.88C653.72 346.36 653.96 346.893 653.96 347.48C653.96 348.12 653.72 348.68 653.24 349.16L632.28 368.76L654.68 397.08ZM698.504 360.12C699.198 360.12 699.758 360.36 700.184 360.84C700.664 361.32 700.904 361.907 700.904 362.6V398.6C700.904 399.293 700.664 399.88 700.184 400.36C699.758 400.787 699.198 401 698.504 401C697.811 401 697.224 400.787 696.744 400.36C696.318 399.88 696.104 399.293 696.104 398.6V393.24C694.771 395.64 692.771 397.667 690.104 399.32C687.438 400.973 684.531 401.8 681.384 401.8C677.811 401.8 674.584 400.867 671.704 399C668.878 397.133 666.638 394.573 664.984 391.32C663.384 388.067 662.584 384.413 662.584 380.36C662.584 376.307 663.411 372.68 665.064 369.48C666.718 366.227 668.958 363.693 671.784 361.88C674.664 360.067 677.838 359.16 681.304 359.16C684.504 359.16 687.438 359.933 690.104 361.48C692.771 363.027 694.771 365.053 696.104 367.56V362.6C696.104 361.907 696.318 361.32 696.744 360.84C697.224 360.36 697.811 360.12 698.504 360.12ZM681.864 397.32C684.638 397.32 687.118 396.6 689.304 395.16C691.544 393.667 693.278 391.64 694.504 389.08C695.784 386.467 696.424 383.56 696.424 380.36C696.424 377.267 695.784 374.44 694.504 371.88C693.278 369.32 691.544 367.32 689.304 365.88C687.118 364.387 684.638 363.64 681.864 363.64C679.091 363.64 676.584 364.36 674.344 365.8C672.158 367.24 670.424 369.24 669.144 371.8C667.918 374.307 667.304 377.16 667.304 380.36C667.304 383.56 667.918 386.467 669.144 389.08C670.371 391.64 672.078 393.667 674.264 395.16C676.504 396.6 679.038 397.32 681.864 397.32ZM711.109 394.52C710.683 393.827 710.469 393.24 710.469 392.76C710.469 392.067 710.816 391.533 711.509 391.16C711.829 390.84 712.256 390.68 712.789 390.68C713.429 390.68 714.016 390.947 714.549 391.48C717.696 395.64 721.883 397.72 727.109 397.72C729.669 397.72 731.883 397.133 733.749 395.96C735.669 394.733 736.629 392.973 736.629 390.68C736.629 388.44 735.749 386.76 733.989 385.64C732.229 384.52 729.776 383.56 726.629 382.76C722.203 381.64 718.736 380.2 716.229 378.44C713.723 376.627 712.469 373.987 712.469 370.52C712.469 368.333 713.083 366.387 714.309 364.68C715.536 362.92 717.189 361.56 719.269 360.6C721.403 359.64 723.803 359.16 726.469 359.16C728.763 359.16 731.056 359.613 733.349 360.52C735.696 361.373 737.696 362.76 739.349 364.68C739.829 365.053 740.069 365.587 740.069 366.28C740.069 366.92 739.803 367.48 739.269 367.96C738.896 368.28 738.416 368.44 737.829 368.44C737.296 368.44 736.816 368.227 736.389 367.8C735.109 366.36 733.589 365.267 731.829 364.52C730.069 363.773 728.176 363.4 726.149 363.4C723.643 363.4 721.483 363.987 719.669 365.16C717.909 366.333 717.029 368.093 717.029 370.44C717.136 372.573 718.096 374.2 719.909 375.32C721.776 376.44 724.496 377.453 728.069 378.36C730.843 379.053 733.136 379.827 734.949 380.68C736.763 381.533 738.229 382.733 739.349 384.28C740.523 385.827 741.109 387.88 741.109 390.44C741.109 393.907 739.723 396.68 736.949 398.76C734.176 400.787 730.736 401.8 726.629 401.8C720.123 401.8 714.949 399.373 711.109 394.52ZM769.569 359.8C774.369 359.8 777.943 361.32 780.289 364.36C782.636 367.347 783.809 371.213 783.809 375.96V398.6C783.809 399.293 783.569 399.88 783.089 400.36C782.663 400.787 782.103 401 781.409 401C780.716 401 780.129 400.787 779.649 400.36C779.223 399.88 779.009 399.293 779.009 398.6V375.96C779.009 372.493 778.183 369.693 776.529 367.56C774.876 365.373 772.289 364.28 768.769 364.28C766.529 364.28 764.396 364.813 762.369 365.88C760.396 366.947 758.796 368.387 757.569 370.2C756.343 371.96 755.729 373.88 755.729 375.96V398.6C755.729 399.293 755.489 399.88 755.009 400.36C754.583 400.787 754.023 401 753.329 401C752.636 401 752.049 400.787 751.569 400.36C751.143 399.88 750.929 399.293 750.929 398.6V344.2C750.929 343.507 751.143 342.947 751.569 342.52C752.049 342.04 752.636 341.8 753.329 341.8C754.023 341.8 754.583 342.04 755.009 342.52C755.489 342.947 755.729 343.507 755.729 344.2V367.64C757.169 365.347 759.169 363.48 761.729 362.04C764.289 360.547 766.903 359.8 769.569 359.8Z" fill="#3D218D"/>
<path fill-rule="evenodd" clip-rule="evenodd" d="M643.75 198.25H472.25V296.25H643.75V198.25ZM472.25 186C469.001 186 465.885 187.291 463.588 189.588C461.291 191.885 460 195.001 460 198.25V296.25C460 299.499 461.291 302.615 463.588 304.912C465.885 307.209 469.001 308.5 472.25 308.5H643.75C646.999 308.5 650.115 307.209 652.412 304.912C654.709 302.615 656 299.499 656 296.25V198.25C656 195.001 654.709 191.885 652.412 189.588C650.115 187.291 646.999 186 643.75 186H472.25Z" fill="#3D218D"/>
<path d="M619.25 198.25C619.25 204.748 621.831 210.979 626.426 215.574C631.021 220.169 637.252 222.75 643.75 222.75V198.25H619.25ZM496.75 198.25C496.75 204.748 494.169 210.979 489.574 215.574C484.979 220.169 478.748 222.75 472.25 222.75V198.25H496.75ZM619.25 296.25C619.25 289.752 621.831 283.521 626.426 278.926C631.021 274.331 637.252 271.75 643.75 271.75V296.25H619.25ZM496.75 296.25C496.75 289.752 494.169 283.521 489.574 278.926C484.979 274.331 478.748 271.75 472.25 271.75V296.25H496.75ZM582.5 247.25C582.5 253.748 579.919 259.979 575.324 264.574C570.729 269.169 564.498 271.75 558 271.75C551.502 271.75 545.271 269.169 540.676 264.574C536.081 259.979 533.5 253.748 533.5 247.25C533.5 240.752 536.081 234.521 540.676 229.926C545.271 225.331 551.502 222.75 558 222.75C564.498 222.75 570.729 225.331 575.324 229.926C579.919 234.521 582.5 240.752 582.5 247.25Z" fill="#3D218D"/>
<rect width="94" height="94" transform="translate(515 202)" fill="white"/>
<path d="M567.875 260.75C558.451 260.75 550.066 259.924 542.723 258.271C535.379 256.619 530.544 254.538 528.219 252.029C536.542 253.926 545.844 254.875 556.125 254.875C563.652 254.875 570.797 254.355 577.56 253.314C584.322 252.274 589.784 250.836 593.945 249C598.107 247.164 600.188 245.206 600.188 243.125V237.25H603.125C604.9 237.617 606.323 238.367 607.394 239.499C608.465 240.631 609 241.84 609 243.125V249C609 251.142 607.164 253.116 603.492 254.921C599.82 256.726 594.833 258.149 588.529 259.189C582.226 260.23 575.341 260.75 567.875 260.75ZM562 237.25C556.064 237.25 550.617 236.929 545.66 236.286C540.703 235.644 536.756 234.879 533.818 233.991C530.881 233.104 528.387 232.155 526.337 231.146C524.287 230.136 522.864 229.264 522.068 228.529C521.273 227.795 520.875 227.275 520.875 226.969V223.389C523.996 225.714 529.382 227.627 537.031 229.126C544.681 230.625 553.004 231.375 562 231.375C570.996 231.375 579.319 230.625 586.969 229.126C594.618 227.627 600.004 225.714 603.125 223.389V225.5C603.125 227.581 601.289 229.524 597.617 231.329C593.945 233.134 588.958 234.573 582.654 235.644C576.351 236.715 569.466 237.25 562 237.25ZM562 225.5C554.534 225.5 547.649 224.965 541.346 223.894C535.042 222.823 530.055 221.384 526.383 219.579C522.711 217.774 520.875 215.815 520.875 213.704C520.875 211.593 522.711 209.634 526.383 207.829C530.055 206.024 535.042 204.601 541.346 203.561C547.649 202.52 554.534 202 562 202C569.466 202 576.351 202.52 582.654 203.561C588.958 204.601 593.945 206.024 597.617 207.829C601.289 209.634 603.125 211.593 603.125 213.704C603.125 215.815 601.289 217.774 597.617 219.579C593.945 221.384 588.958 222.823 582.654 223.894C576.351 224.965 569.466 225.5 562 225.5ZM517.938 231.375C517.938 233.456 520.018 235.414 524.18 237.25C528.341 239.086 533.803 240.524 540.565 241.564C547.328 242.605 554.473 243.125 562 243.125C568.854 243.125 575.402 242.681 581.645 241.794C587.887 240.907 593.089 239.698 597.25 238.168C597.189 238.29 597.082 238.489 596.929 238.765C596.776 239.04 596.301 239.545 595.506 240.279C594.71 241.014 593.746 241.717 592.614 242.391C591.482 243.064 589.83 243.829 587.657 244.686C585.485 245.542 583.037 246.261 580.313 246.843C577.59 247.424 574.117 247.929 569.895 248.357C565.672 248.786 561.082 249 556.125 249C548.659 249 541.774 248.465 535.471 247.394C529.167 246.323 524.18 244.884 520.508 243.079C516.836 241.274 515 239.331 515 237.25V231.375C515 229.906 515.979 228.468 517.938 227.061V231.375ZM517.938 262.311V266.625C517.938 268.706 520.018 270.664 524.18 272.5C528.341 274.336 533.803 275.774 540.565 276.814C547.328 277.855 554.473 278.375 562 278.375C568.732 278.375 575.203 277.947 581.415 277.09C587.627 276.233 592.844 275.04 597.066 273.51C596.148 276.57 591.773 279.125 583.939 281.175C576.106 283.225 566.835 284.25 556.125 284.25C548.659 284.25 541.774 283.73 535.471 282.689C529.167 281.649 524.18 280.226 520.508 278.421C516.836 276.616 515 274.642 515 272.5V266.625C515 265.156 515.979 263.718 517.938 262.311ZM567.875 266.625C574.668 266.625 581.17 266.181 587.382 265.294C593.593 264.407 598.78 263.198 602.941 261.668C602.085 264.728 597.74 267.298 589.906 269.379C582.073 271.46 572.771 272.5 562 272.5C554.534 272.5 547.649 271.98 541.346 270.939C535.042 269.899 530.055 268.476 526.383 266.671C522.711 264.866 520.875 262.892 520.875 260.75V254.875C520.875 253.529 521.762 252.152 523.537 250.744C524.455 251.05 525.251 251.295 525.924 251.479C524.761 252.641 524.18 253.773 524.18 254.875C524.18 256.956 526.23 258.914 530.33 260.75C534.43 262.586 539.846 264.024 546.578 265.064C553.31 266.105 560.409 266.625 567.875 266.625ZM600.188 278.375V274.061C602.146 275.468 603.125 276.906 603.125 278.375V284.25C603.125 286.392 601.289 288.366 597.617 290.171C593.945 291.976 588.958 293.399 582.654 294.439C576.351 295.48 569.466 296 562 296C551.229 296 541.927 294.96 534.094 292.879C526.26 290.798 521.915 288.228 521.059 285.168C525.22 286.698 530.407 287.907 536.618 288.794C542.83 289.681 549.332 290.125 556.125 290.125C563.652 290.125 570.797 289.605 577.56 288.564C584.322 287.524 589.784 286.086 593.945 284.25C598.107 282.414 600.188 280.456 600.188 278.375Z" fill="#3D218D"/>
</svg>
