<svg width="1116" height="609" viewBox="0 0 1116 609" fill="none" xmlns="http://www.w3.org/2000/svg">
<rect width="1116" height="609" fill="white"/>
<path d="M452.1 295.1C452.567 295.767 452.8 296.467 452.8 297.2C452.8 298.2 452.433 299 451.7 299.6C451.033 300.133 450.267 300.4 449.4 300.4C448.533 300.4 447.8 300.033 447.2 299.3L419.3 264.2L405.7 277V296.9C405.633 297.833 405.3 298.6 404.7 299.2C404.1 299.733 403.367 300 402.5 300C401.567 300 400.8 299.733 400.2 299.2C399.667 298.6 399.4 297.833 399.4 296.9V233.1C399.4 232.167 399.7 231.433 400.3 230.9C400.9 230.3 401.667 230 402.6 230C403.533 230 404.267 230.3 404.8 230.9C405.4 231.433 405.7 232.167 405.7 233.1V269.4L446.1 231.2C446.7 230.533 447.433 230.2 448.3 230.2C449.1 230.2 449.767 230.5 450.3 231.1C450.9 231.7 451.2 232.367 451.2 233.1C451.2 233.9 450.9 234.6 450.3 235.2L424.1 259.7L452.1 295.1ZM510.432 274.4C510.432 279.4 509.332 283.933 507.132 288C504.932 292.067 501.899 295.267 498.032 297.6C494.165 299.867 489.865 301 485.132 301C480.399 301 476.099 299.867 472.232 297.6C468.365 295.267 465.332 292.067 463.132 288C460.932 283.933 459.832 279.4 459.832 274.4C459.832 269.4 460.932 264.867 463.132 260.8C465.332 256.733 468.365 253.533 472.232 251.2C476.099 248.867 480.399 247.7 485.132 247.7C489.865 247.7 494.165 248.867 498.032 251.2C501.899 253.533 504.932 256.733 507.132 260.8C509.332 264.867 510.432 269.4 510.432 274.4ZM504.432 274.4C504.432 270.4 503.599 266.8 501.932 263.6C500.265 260.4 497.932 257.9 494.932 256.1C491.999 254.233 488.732 253.3 485.132 253.3C481.532 253.3 478.265 254.233 475.332 256.1C472.399 257.9 470.065 260.4 468.332 263.6C466.665 266.8 465.832 270.4 465.832 274.4C465.832 278.333 466.665 281.9 468.332 285.1C470.065 288.3 472.399 290.833 475.332 292.7C478.265 294.5 481.532 295.4 485.132 295.4C488.732 295.4 491.999 294.5 494.932 292.7C497.932 290.9 500.265 288.4 501.932 285.2C503.599 282 504.432 278.4 504.432 274.4ZM528.505 297C528.505 297.867 528.205 298.6 527.605 299.2C527.071 299.733 526.371 300 525.505 300C524.638 300 523.905 299.733 523.305 299.2C522.771 298.6 522.505 297.867 522.505 297V251C522.505 250.133 522.771 249.433 523.305 248.9C523.905 248.3 524.638 248 525.505 248C526.371 248 527.071 248.3 527.605 248.9C528.205 249.433 528.505 250.133 528.505 251V297ZM525.505 241.3C524.171 241.3 523.138 241 522.405 240.4C521.671 239.733 521.305 238.8 521.305 237.6V236.6C521.305 235.4 521.671 234.5 522.405 233.9C523.205 233.233 524.271 232.9 525.605 232.9C528.271 232.9 529.605 234.133 529.605 236.6V237.6C529.605 238.8 529.238 239.733 528.505 240.4C527.838 241 526.838 241.3 525.505 241.3ZM568.191 247.7C574.391 247.7 578.925 249.533 581.791 253.2C584.725 256.8 586.191 261.6 586.191 267.6V297C586.191 297.867 585.891 298.6 585.291 299.2C584.691 299.733 583.991 300 583.191 300C582.325 300 581.591 299.733 580.991 299.2C580.458 298.6 580.191 297.867 580.191 297V267.9C580.191 263.567 579.091 260.067 576.891 257.4C574.758 254.667 571.425 253.3 566.891 253.3C564.025 253.3 561.291 253.967 558.691 255.3C556.158 256.633 554.091 258.433 552.491 260.7C550.891 262.9 550.091 265.3 550.091 267.9V297C550.091 297.867 549.791 298.6 549.191 299.2C548.658 299.733 547.958 300 547.091 300C546.225 300 545.491 299.733 544.891 299.2C544.358 298.6 544.091 297.867 544.091 297V252.2C544.091 251.333 544.358 250.633 544.891 250.1C545.491 249.5 546.225 249.2 547.091 249.2C547.958 249.2 548.658 249.5 549.191 250.1C549.791 250.633 550.091 251.333 550.091 252.2V257.7C551.891 254.833 554.458 252.467 557.791 250.6C561.191 248.667 564.658 247.7 568.191 247.7ZM599.004 291.9C598.471 291.033 598.204 290.3 598.204 289.7C598.204 288.833 598.637 288.167 599.504 287.7C599.904 287.3 600.437 287.1 601.104 287.1C601.904 287.1 602.637 287.433 603.304 288.1C607.237 293.3 612.471 295.9 619.004 295.9C622.204 295.9 624.971 295.167 627.304 293.7C629.704 292.167 630.904 289.967 630.904 287.1C630.904 284.3 629.804 282.2 627.604 280.8C625.404 279.4 622.337 278.2 618.404 277.2C612.871 275.8 608.537 274 605.404 271.8C602.271 269.533 600.704 266.233 600.704 261.9C600.704 259.167 601.471 256.733 603.004 254.6C604.537 252.4 606.604 250.7 609.204 249.5C611.871 248.3 614.871 247.7 618.204 247.7C621.071 247.7 623.937 248.267 626.804 249.4C629.737 250.467 632.237 252.2 634.304 254.6C634.904 255.067 635.204 255.733 635.204 256.6C635.204 257.4 634.871 258.1 634.204 258.7C633.737 259.1 633.137 259.3 632.404 259.3C631.737 259.3 631.137 259.033 630.604 258.5C629.004 256.7 627.104 255.333 624.904 254.4C622.704 253.467 620.337 253 617.804 253C614.671 253 611.971 253.733 609.704 255.2C607.504 256.667 606.404 258.867 606.404 261.8C606.537 264.467 607.737 266.5 610.004 267.9C612.337 269.3 615.737 270.567 620.204 271.7C623.671 272.567 626.537 273.533 628.804 274.6C631.071 275.667 632.904 277.167 634.304 279.1C635.771 281.033 636.504 283.6 636.504 286.8C636.504 291.133 634.771 294.6 631.304 297.2C627.837 299.733 623.537 301 618.404 301C610.271 301 603.804 297.967 599.004 291.9ZM704.979 294.4C705.846 295.067 706.279 295.9 706.279 296.9C706.279 297.567 706.012 298.2 705.479 298.8C705.012 299.4 704.379 299.7 703.579 299.7C702.912 299.7 702.312 299.533 701.779 299.2L699.579 297.5C696.512 295.233 693.912 293.2 691.779 291.4C688.912 294.4 685.479 296.767 681.479 298.5C677.546 300.167 673.079 301 668.079 301C663.479 301 659.312 299.933 655.579 297.8C651.912 295.6 649.046 292.767 646.979 289.3C644.912 285.767 643.879 282.067 643.879 278.2C643.879 273.8 645.146 269.767 647.679 266.1C650.212 262.367 653.946 259.533 658.879 257.6C656.079 253.2 654.679 249.133 654.679 245.4C654.679 242.267 655.446 239.467 656.979 237C658.512 234.533 660.679 232.6 663.479 231.2C666.346 229.733 669.679 229 673.479 229C678.012 229 681.879 229.867 685.079 231.6C688.346 233.333 690.646 235.5 691.979 238.1C692.312 238.767 692.479 239.4 692.479 240C692.479 240.667 692.212 241.267 691.679 241.8C691.146 242.267 690.479 242.5 689.679 242.5C688.612 242.5 687.879 242.133 687.479 241.4C686.012 239.2 684.146 237.5 681.879 236.3C679.679 235.1 676.879 234.5 673.479 234.5C669.479 234.5 666.379 235.5 664.179 237.5C662.046 239.433 660.979 242.067 660.979 245.4C660.979 248.2 662.012 251.3 664.079 254.7C666.212 258.1 669.046 261.767 672.579 265.7C677.512 271.233 683.612 277.1 690.879 283.3C693.212 279.367 694.812 275.033 695.679 270.3C695.812 269.7 696.079 269.2 696.479 268.8C696.946 268.4 697.579 268.2 698.379 268.2C699.246 268.2 699.946 268.567 700.479 269.3C701.079 269.967 701.312 270.767 701.179 271.7C700.379 277.167 698.446 282.233 695.379 286.9C698.179 289.233 701.379 291.733 704.979 294.4ZM668.779 295.2C676.446 295.2 682.646 292.733 687.379 287.8C680.312 282.133 673.579 275.633 667.179 268.3C664.779 265.5 663.079 263.433 662.079 262.1C657.946 263.367 654.912 265.367 652.979 268.1C651.046 270.833 650.079 273.933 650.079 277.4C650.079 280.467 650.779 283.367 652.179 286.1C653.646 288.833 655.779 291.033 658.579 292.7C661.446 294.367 664.846 295.2 668.779 295.2ZM770.85 295.1C771.317 295.767 771.55 296.467 771.55 297.2C771.55 298.2 771.183 299 770.45 299.6C769.783 300.133 769.017 300.4 768.15 300.4C767.283 300.4 766.55 300.033 765.95 299.3L738.05 264.2L724.45 277V296.9C724.383 297.833 724.05 298.6 723.45 299.2C722.85 299.733 722.117 300 721.25 300C720.317 300 719.55 299.733 718.95 299.2C718.417 298.6 718.15 297.833 718.15 296.9V233.1C718.15 232.167 718.45 231.433 719.05 230.9C719.65 230.3 720.417 230 721.35 230C722.283 230 723.017 230.3 723.55 230.9C724.15 231.433 724.45 232.167 724.45 233.1V269.4L764.85 231.2C765.45 230.533 766.183 230.2 767.05 230.2C767.85 230.2 768.517 230.5 769.05 231.1C769.65 231.7 769.95 232.367 769.95 233.1C769.95 233.9 769.65 234.6 769.05 235.2L742.85 259.7L770.85 295.1ZM825.63 248.9C826.497 248.9 827.197 249.2 827.73 249.8C828.33 250.4 828.63 251.133 828.63 252V297C828.63 297.867 828.33 298.6 827.73 299.2C827.197 299.733 826.497 300 825.63 300C824.764 300 824.03 299.733 823.43 299.2C822.897 298.6 822.63 297.867 822.63 297V290.3C820.964 293.3 818.464 295.833 815.13 297.9C811.797 299.967 808.164 301 804.23 301C799.764 301 795.73 299.833 792.13 297.5C788.597 295.167 785.797 291.967 783.73 287.9C781.73 283.833 780.73 279.267 780.73 274.2C780.73 269.133 781.764 264.6 783.83 260.6C785.897 256.533 788.697 253.367 792.23 251.1C795.83 248.833 799.797 247.7 804.13 247.7C808.13 247.7 811.797 248.667 815.13 250.6C818.464 252.533 820.964 255.067 822.63 258.2V252C822.63 251.133 822.897 250.4 823.43 249.8C824.03 249.2 824.764 248.9 825.63 248.9ZM804.83 295.4C808.297 295.4 811.397 294.5 814.13 292.7C816.93 290.833 819.097 288.3 820.63 285.1C822.23 281.833 823.03 278.2 823.03 274.2C823.03 270.333 822.23 266.8 820.63 263.6C819.097 260.4 816.93 257.9 814.13 256.1C811.397 254.233 808.297 253.3 804.83 253.3C801.364 253.3 798.23 254.2 795.43 256C792.697 257.8 790.53 260.3 788.93 263.5C787.397 266.633 786.63 270.2 786.63 274.2C786.63 278.2 787.397 281.833 788.93 285.1C790.464 288.3 792.597 290.833 795.33 292.7C798.13 294.5 801.297 295.4 804.83 295.4ZM841.387 291.9C840.853 291.033 840.587 290.3 840.587 289.7C840.587 288.833 841.02 288.167 841.887 287.7C842.287 287.3 842.82 287.1 843.487 287.1C844.287 287.1 845.02 287.433 845.687 288.1C849.62 293.3 854.853 295.9 861.387 295.9C864.587 295.9 867.353 295.167 869.687 293.7C872.087 292.167 873.287 289.967 873.287 287.1C873.287 284.3 872.187 282.2 869.987 280.8C867.787 279.4 864.72 278.2 860.787 277.2C855.253 275.8 850.92 274 847.787 271.8C844.653 269.533 843.087 266.233 843.087 261.9C843.087 259.167 843.853 256.733 845.387 254.6C846.92 252.4 848.987 250.7 851.587 249.5C854.253 248.3 857.253 247.7 860.587 247.7C863.453 247.7 866.32 248.267 869.187 249.4C872.12 250.467 874.62 252.2 876.687 254.6C877.287 255.067 877.587 255.733 877.587 256.6C877.587 257.4 877.253 258.1 876.587 258.7C876.12 259.1 875.52 259.3 874.787 259.3C874.12 259.3 873.52 259.033 872.987 258.5C871.387 256.7 869.487 255.333 867.287 254.4C865.087 253.467 862.72 253 860.187 253C857.053 253 854.353 253.733 852.087 255.2C849.887 256.667 848.787 258.867 848.787 261.8C848.92 264.467 850.12 266.5 852.387 267.9C854.72 269.3 858.12 270.567 862.587 271.7C866.053 272.567 868.92 273.533 871.187 274.6C873.453 275.667 875.287 277.167 876.687 279.1C878.153 281.033 878.887 283.6 878.887 286.8C878.887 291.133 877.153 294.6 873.687 297.2C870.22 299.733 865.92 301 860.787 301C852.653 301 846.187 297.967 841.387 291.9ZM914.462 248.5C920.462 248.5 924.928 250.4 927.862 254.2C930.795 257.933 932.262 262.767 932.262 268.7V297C932.262 297.867 931.962 298.6 931.362 299.2C930.828 299.733 930.128 300 929.262 300C928.395 300 927.662 299.733 927.062 299.2C926.528 298.6 926.262 297.867 926.262 297V268.7C926.262 264.367 925.228 260.867 923.162 258.2C921.095 255.467 917.862 254.1 913.462 254.1C910.662 254.1 907.995 254.767 905.462 256.1C902.995 257.433 900.995 259.233 899.462 261.5C897.928 263.7 897.162 266.1 897.162 268.7V297C897.162 297.867 896.862 298.6 896.262 299.2C895.728 299.733 895.028 300 894.162 300C893.295 300 892.562 299.733 891.962 299.2C891.428 298.6 891.162 297.867 891.162 297V229C891.162 228.133 891.428 227.433 891.962 226.9C892.562 226.3 893.295 226 894.162 226C895.028 226 895.728 226.3 896.262 226.9C896.862 227.433 897.162 228.133 897.162 229V258.3C898.962 255.433 901.462 253.1 904.662 251.3C907.862 249.433 911.128 248.5 914.462 248.5Z" fill="#3D218D"/>
<path fill-rule="evenodd" clip-rule="evenodd" d="M337.75 207.25H166.25V305.25H337.75V207.25ZM166.25 195C163.001 195 159.885 196.291 157.588 198.588C155.291 200.885 154 204.001 154 207.25V305.25C154 308.499 155.291 311.615 157.588 313.912C159.885 316.209 163.001 317.5 166.25 317.5H337.75C340.999 317.5 344.115 316.209 346.412 313.912C348.709 311.615 350 308.499 350 305.25V207.25C350 204.001 348.709 200.885 346.412 198.588C344.115 196.291 340.999 195 337.75 195H166.25Z" fill="#3D218D"/>
<path d="M313.25 207.25C313.25 213.748 315.831 219.979 320.426 224.574C325.021 229.169 331.252 231.75 337.75 231.75V207.25H313.25ZM190.75 207.25C190.75 213.748 188.169 219.979 183.574 224.574C178.979 229.169 172.748 231.75 166.25 231.75V207.25H190.75ZM313.25 305.25C313.25 298.752 315.831 292.521 320.426 287.926C325.021 283.331 331.252 280.75 337.75 280.75V305.25H313.25ZM190.75 305.25C190.75 298.752 188.169 292.521 183.574 287.926C178.979 283.331 172.748 280.75 166.25 280.75V305.25H190.75ZM276.5 256.25C276.5 262.748 273.919 268.979 269.324 273.574C264.729 278.169 258.498 280.75 252 280.75C245.502 280.75 239.271 278.169 234.676 273.574C230.081 268.979 227.5 262.748 227.5 256.25C227.5 249.752 230.081 243.521 234.676 238.926C239.271 234.331 245.502 231.75 252 231.75C258.498 231.75 264.729 234.331 269.324 238.926C273.919 243.521 276.5 249.752 276.5 256.25Z" fill="#3D218D"/>
<rect width="94" height="94" transform="translate(209 211)" fill="white"/>
<path d="M261.875 269.75C252.451 269.75 244.066 268.924 236.723 267.271C229.379 265.619 224.544 263.538 222.219 261.029C230.542 262.926 239.844 263.875 250.125 263.875C257.652 263.875 264.797 263.355 271.56 262.314C278.322 261.274 283.784 259.836 287.945 258C292.107 256.164 294.188 254.206 294.188 252.125V246.25H297.125C298.9 246.617 300.323 247.367 301.394 248.499C302.465 249.631 303 250.84 303 252.125V258C303 260.142 301.164 262.116 297.492 263.921C293.82 265.726 288.833 267.149 282.529 268.189C276.226 269.23 269.341 269.75 261.875 269.75ZM256 246.25C250.064 246.25 244.617 245.929 239.66 245.286C234.703 244.644 230.756 243.879 227.818 242.991C224.881 242.104 222.387 241.155 220.337 240.146C218.287 239.136 216.864 238.264 216.068 237.529C215.273 236.795 214.875 236.275 214.875 235.969V232.389C217.996 234.714 223.382 236.627 231.031 238.126C238.681 239.625 247.004 240.375 256 240.375C264.996 240.375 273.319 239.625 280.969 238.126C288.618 236.627 294.004 234.714 297.125 232.389V234.5C297.125 236.581 295.289 238.524 291.617 240.329C287.945 242.134 282.958 243.573 276.654 244.644C270.351 245.715 263.466 246.25 256 246.25ZM256 234.5C248.534 234.5 241.649 233.965 235.346 232.894C229.042 231.823 224.055 230.384 220.383 228.579C216.711 226.774 214.875 224.815 214.875 222.704C214.875 220.593 216.711 218.634 220.383 216.829C224.055 215.024 229.042 213.601 235.346 212.561C241.649 211.52 248.534 211 256 211C263.466 211 270.351 211.52 276.654 212.561C282.958 213.601 287.945 215.024 291.617 216.829C295.289 218.634 297.125 220.593 297.125 222.704C297.125 224.815 295.289 226.774 291.617 228.579C287.945 230.384 282.958 231.823 276.654 232.894C270.351 233.965 263.466 234.5 256 234.5ZM211.938 240.375C211.938 242.456 214.018 244.414 218.18 246.25C222.341 248.086 227.803 249.524 234.565 250.564C241.328 251.605 248.473 252.125 256 252.125C262.854 252.125 269.402 251.681 275.645 250.794C281.887 249.907 287.089 248.698 291.25 247.168C291.189 247.29 291.082 247.489 290.929 247.765C290.776 248.04 290.301 248.545 289.506 249.279C288.71 250.014 287.746 250.717 286.614 251.391C285.482 252.064 283.83 252.829 281.657 253.686C279.485 254.542 277.037 255.261 274.313 255.843C271.59 256.424 268.117 256.929 263.895 257.357C259.672 257.786 255.082 258 250.125 258C242.659 258 235.774 257.465 229.471 256.394C223.167 255.323 218.18 253.884 214.508 252.079C210.836 250.274 209 248.331 209 246.25V240.375C209 238.906 209.979 237.468 211.938 236.061V240.375ZM211.938 271.311V275.625C211.938 277.706 214.018 279.664 218.18 281.5C222.341 283.336 227.803 284.774 234.565 285.814C241.328 286.855 248.473 287.375 256 287.375C262.732 287.375 269.203 286.947 275.415 286.09C281.627 285.233 286.844 284.04 291.066 282.51C290.148 285.57 285.773 288.125 277.939 290.175C270.106 292.225 260.835 293.25 250.125 293.25C242.659 293.25 235.774 292.73 229.471 291.689C223.167 290.649 218.18 289.226 214.508 287.421C210.836 285.616 209 283.642 209 281.5V275.625C209 274.156 209.979 272.718 211.938 271.311ZM261.875 275.625C268.668 275.625 275.17 275.181 281.382 274.294C287.593 273.407 292.78 272.198 296.941 270.668C296.085 273.728 291.74 276.298 283.906 278.379C276.073 280.46 266.771 281.5 256 281.5C248.534 281.5 241.649 280.98 235.346 279.939C229.042 278.899 224.055 277.476 220.383 275.671C216.711 273.866 214.875 271.892 214.875 269.75V263.875C214.875 262.529 215.762 261.152 217.537 259.744C218.455 260.05 219.251 260.295 219.924 260.479C218.761 261.641 218.18 262.773 218.18 263.875C218.18 265.956 220.23 267.914 224.33 269.75C228.43 271.586 233.846 273.024 240.578 274.064C247.31 275.105 254.409 275.625 261.875 275.625ZM294.188 287.375V283.061C296.146 284.468 297.125 285.906 297.125 287.375V293.25C297.125 295.392 295.289 297.366 291.617 299.171C287.945 300.976 282.958 302.399 276.654 303.439C270.351 304.48 263.466 305 256 305C245.229 305 235.927 303.96 228.094 301.879C220.26 299.798 215.915 297.228 215.059 294.168C219.22 295.698 224.407 296.907 230.618 297.794C236.83 298.681 243.332 299.125 250.125 299.125C257.652 299.125 264.797 298.605 271.56 297.564C278.322 296.524 283.784 295.086 287.945 293.25C292.107 291.414 294.188 289.456 294.188 287.375Z" fill="#3D218D"/>
</svg>
