<svg width="331" height="237" viewBox="0 0 331 237" fill="none" xmlns="http://www.w3.org/2000/svg">
<path d="M37.26 219.06C37.54 219.46 37.68 219.88 37.68 220.32C37.68 220.92 37.46 221.4 37.02 221.76C36.62 222.08 36.16 222.24 35.64 222.24C35.12 222.24 34.68 222.02 34.32 221.58L17.58 200.52L9.42 208.2V220.14C9.38 220.7 9.18 221.16 8.82 221.52C8.46 221.84 8.02 222 7.5 222C6.94 222 6.48 221.84 6.12 221.52C5.8 221.16 5.64 220.7 5.64 220.14V181.86C5.64 181.3 5.82 180.86 6.18 180.54C6.54 180.18 7 180 7.56 180C8.12 180 8.56 180.18 8.88 180.54C9.24 180.86 9.42 181.3 9.42 181.86V203.64L33.66 180.72C34.02 180.32 34.46 180.12 34.98 180.12C35.46 180.12 35.86 180.3 36.18 180.66C36.54 181.02 36.72 181.42 36.72 181.86C36.72 182.34 36.54 182.76 36.18 183.12L20.46 197.82L37.26 219.06ZM72.2592 206.64C72.2592 209.64 71.5992 212.36 70.2792 214.8C68.9592 217.24 67.1392 219.16 64.8192 220.56C62.4992 221.92 59.9192 222.6 57.0792 222.6C54.2392 222.6 51.6592 221.92 49.3392 220.56C47.0192 219.16 45.1992 217.24 43.8792 214.8C42.5592 212.36 41.8992 209.64 41.8992 206.64C41.8992 203.64 42.5592 200.92 43.8792 198.48C45.1992 196.04 47.0192 194.12 49.3392 192.72C51.6592 191.32 54.2392 190.62 57.0792 190.62C59.9192 190.62 62.4992 191.32 64.8192 192.72C67.1392 194.12 68.9592 196.04 70.2792 198.48C71.5992 200.92 72.2592 203.64 72.2592 206.64ZM68.6592 206.64C68.6592 204.24 68.1592 202.08 67.1592 200.16C66.1592 198.24 64.7592 196.74 62.9592 195.66C61.1992 194.54 59.2392 193.98 57.0792 193.98C54.9192 193.98 52.9592 194.54 51.1992 195.66C49.4392 196.74 48.0392 198.24 46.9992 200.16C45.9992 202.08 45.4992 204.24 45.4992 206.64C45.4992 209 45.9992 211.14 46.9992 213.06C48.0392 214.98 49.4392 216.5 51.1992 217.62C52.9592 218.7 54.9192 219.24 57.0792 219.24C59.2392 219.24 61.1992 218.7 62.9592 217.62C64.7592 216.54 66.1592 215.04 67.1592 213.12C68.1592 211.2 68.6592 209.04 68.6592 206.64ZM83.1028 220.2C83.1028 220.72 82.9228 221.16 82.5628 221.52C82.2428 221.84 81.8228 222 81.3028 222C80.7828 222 80.3428 221.84 79.9828 221.52C79.6628 221.16 79.5028 220.72 79.5028 220.2V192.6C79.5028 192.08 79.6628 191.66 79.9828 191.34C80.3428 190.98 80.7828 190.8 81.3028 190.8C81.8228 190.8 82.2428 190.98 82.5628 191.34C82.9228 191.66 83.1028 192.08 83.1028 192.6V220.2ZM81.3028 186.78C80.5028 186.78 79.8828 186.6 79.4428 186.24C79.0028 185.84 78.7828 185.28 78.7828 184.56V183.96C78.7828 183.24 79.0028 182.7 79.4428 182.34C79.9228 181.94 80.5628 181.74 81.3628 181.74C82.9628 181.74 83.7628 182.48 83.7628 183.96V184.56C83.7628 185.28 83.5428 185.84 83.1028 186.24C82.7028 186.6 82.1028 186.78 81.3028 186.78ZM106.915 190.62C110.635 190.62 113.355 191.72 115.075 193.92C116.835 196.08 117.715 198.96 117.715 202.56V220.2C117.715 220.72 117.535 221.16 117.175 221.52C116.815 221.84 116.395 222 115.915 222C115.395 222 114.955 221.84 114.595 221.52C114.275 221.16 114.115 220.72 114.115 220.2V202.74C114.115 200.14 113.455 198.04 112.135 196.44C110.855 194.8 108.855 193.98 106.135 193.98C104.415 193.98 102.775 194.38 101.215 195.18C99.6948 195.98 98.4548 197.06 97.4948 198.42C96.5348 199.74 96.0548 201.18 96.0548 202.74V220.2C96.0548 220.72 95.8748 221.16 95.5148 221.52C95.1948 221.84 94.7748 222 94.2548 222C93.7348 222 93.2948 221.84 92.9348 221.52C92.6148 221.16 92.4548 220.72 92.4548 220.2V193.32C92.4548 192.8 92.6148 192.38 92.9348 192.06C93.2948 191.7 93.7348 191.52 94.2548 191.52C94.7748 191.52 95.1948 191.7 95.5148 192.06C95.8748 192.38 96.0548 192.8 96.0548 193.32V196.62C97.1348 194.9 98.6748 193.48 100.675 192.36C102.715 191.2 104.795 190.62 106.915 190.62ZM125.402 217.14C125.082 216.62 124.922 216.18 124.922 215.82C124.922 215.3 125.182 214.9 125.702 214.62C125.942 214.38 126.262 214.26 126.662 214.26C127.142 214.26 127.582 214.46 127.982 214.86C130.342 217.98 133.482 219.54 137.402 219.54C139.322 219.54 140.982 219.1 142.382 218.22C143.822 217.3 144.542 215.98 144.542 214.26C144.542 212.58 143.882 211.32 142.562 210.48C141.242 209.64 139.402 208.92 137.042 208.32C133.722 207.48 131.122 206.4 129.242 205.08C127.362 203.72 126.422 201.74 126.422 199.14C126.422 197.5 126.882 196.04 127.802 194.76C128.722 193.44 129.962 192.42 131.522 191.7C133.122 190.98 134.922 190.62 136.922 190.62C138.642 190.62 140.362 190.96 142.082 191.64C143.842 192.28 145.342 193.32 146.582 194.76C146.942 195.04 147.122 195.44 147.122 195.96C147.122 196.44 146.922 196.86 146.522 197.22C146.242 197.46 145.882 197.58 145.442 197.58C145.042 197.58 144.682 197.42 144.362 197.1C143.402 196.02 142.262 195.2 140.942 194.64C139.622 194.08 138.202 193.8 136.682 193.8C134.802 193.8 133.182 194.24 131.822 195.12C130.502 196 129.842 197.32 129.842 199.08C129.922 200.68 130.642 201.9 132.002 202.74C133.402 203.58 135.442 204.34 138.122 205.02C140.202 205.54 141.922 206.12 143.282 206.76C144.642 207.4 145.742 208.3 146.582 209.46C147.462 210.62 147.902 212.16 147.902 214.08C147.902 216.68 146.862 218.76 144.782 220.32C142.702 221.84 140.122 222.6 137.042 222.6C132.162 222.6 128.282 220.78 125.402 217.14ZM188.987 218.64C189.507 219.04 189.767 219.54 189.767 220.14C189.767 220.54 189.607 220.92 189.287 221.28C189.007 221.64 188.627 221.82 188.147 221.82C187.747 221.82 187.387 221.72 187.067 221.52L185.747 220.5C183.907 219.14 182.347 217.92 181.067 216.84C179.347 218.64 177.287 220.06 174.887 221.1C172.527 222.1 169.847 222.6 166.847 222.6C164.087 222.6 161.587 221.96 159.347 220.68C157.147 219.36 155.427 217.66 154.187 215.58C152.947 213.46 152.327 211.24 152.327 208.92C152.327 206.28 153.087 203.86 154.607 201.66C156.127 199.42 158.367 197.72 161.327 196.56C159.647 193.92 158.807 191.48 158.807 189.24C158.807 187.36 159.267 185.68 160.187 184.2C161.107 182.72 162.407 181.56 164.087 180.72C165.807 179.84 167.807 179.4 170.087 179.4C172.807 179.4 175.127 179.92 177.047 180.96C179.007 182 180.387 183.3 181.187 184.86C181.387 185.26 181.487 185.64 181.487 186C181.487 186.4 181.327 186.76 181.007 187.08C180.687 187.36 180.287 187.5 179.807 187.5C179.167 187.5 178.727 187.28 178.487 186.84C177.607 185.52 176.487 184.5 175.127 183.78C173.807 183.06 172.127 182.7 170.087 182.7C167.687 182.7 165.827 183.3 164.507 184.5C163.227 185.66 162.587 187.24 162.587 189.24C162.587 190.92 163.207 192.78 164.447 194.82C165.727 196.86 167.427 199.06 169.547 201.42C172.507 204.74 176.167 208.26 180.527 211.98C181.927 209.62 182.887 207.02 183.407 204.18C183.487 203.82 183.647 203.52 183.887 203.28C184.167 203.04 184.547 202.92 185.027 202.92C185.547 202.92 185.967 203.14 186.287 203.58C186.647 203.98 186.787 204.46 186.707 205.02C186.227 208.3 185.067 211.34 183.227 214.14C184.907 215.54 186.827 217.04 188.987 218.64ZM167.267 219.12C171.867 219.12 175.587 217.64 178.427 214.68C174.187 211.28 170.147 207.38 166.307 202.98C164.867 201.3 163.847 200.06 163.247 199.26C160.767 200.02 158.947 201.22 157.787 202.86C156.627 204.5 156.047 206.36 156.047 208.44C156.047 210.28 156.467 212.02 157.307 213.66C158.187 215.3 159.467 216.62 161.147 217.62C162.867 218.62 164.907 219.12 167.267 219.12ZM228.51 219.06C228.79 219.46 228.93 219.88 228.93 220.32C228.93 220.92 228.71 221.4 228.27 221.76C227.87 222.08 227.41 222.24 226.89 222.24C226.37 222.24 225.93 222.02 225.57 221.58L208.83 200.52L200.67 208.2V220.14C200.63 220.7 200.43 221.16 200.07 221.52C199.71 221.84 199.27 222 198.75 222C198.19 222 197.73 221.84 197.37 221.52C197.05 221.16 196.89 220.7 196.89 220.14V181.86C196.89 181.3 197.07 180.86 197.43 180.54C197.79 180.18 198.25 180 198.81 180C199.37 180 199.81 180.18 200.13 180.54C200.49 180.86 200.67 181.3 200.67 181.86V203.64L224.91 180.72C225.27 180.32 225.71 180.12 226.23 180.12C226.71 180.12 227.11 180.3 227.43 180.66C227.79 181.02 227.97 181.42 227.97 181.86C227.97 182.34 227.79 182.76 227.43 183.12L211.71 197.82L228.51 219.06ZM261.378 191.34C261.898 191.34 262.318 191.52 262.638 191.88C262.998 192.24 263.178 192.68 263.178 193.2V220.2C263.178 220.72 262.998 221.16 262.638 221.52C262.318 221.84 261.898 222 261.378 222C260.858 222 260.418 221.84 260.058 221.52C259.738 221.16 259.578 220.72 259.578 220.2V216.18C258.578 217.98 257.078 219.5 255.078 220.74C253.078 221.98 250.898 222.6 248.538 222.6C245.858 222.6 243.438 221.9 241.278 220.5C239.158 219.1 237.478 217.18 236.238 214.74C235.038 212.3 234.438 209.56 234.438 206.52C234.438 203.48 235.058 200.76 236.298 198.36C237.538 195.92 239.218 194.02 241.338 192.66C243.498 191.3 245.878 190.62 248.478 190.62C250.878 190.62 253.078 191.2 255.078 192.36C257.078 193.52 258.578 195.04 259.578 196.92V193.2C259.578 192.68 259.738 192.24 260.058 191.88C260.418 191.52 260.858 191.34 261.378 191.34ZM248.898 219.24C250.978 219.24 252.838 218.7 254.478 217.62C256.158 216.5 257.458 214.98 258.378 213.06C259.338 211.1 259.818 208.92 259.818 206.52C259.818 204.2 259.338 202.08 258.378 200.16C257.458 198.24 256.158 196.74 254.478 195.66C252.838 194.54 250.978 193.98 248.898 193.98C246.818 193.98 244.938 194.52 243.258 195.6C241.618 196.68 240.318 198.18 239.358 200.1C238.438 201.98 237.978 204.12 237.978 206.52C237.978 208.92 238.438 211.1 239.358 213.06C240.278 214.98 241.558 216.5 243.198 217.62C244.878 218.7 246.778 219.24 248.898 219.24ZM270.832 217.14C270.512 216.62 270.352 216.18 270.352 215.82C270.352 215.3 270.612 214.9 271.132 214.62C271.372 214.38 271.692 214.26 272.092 214.26C272.572 214.26 273.012 214.46 273.412 214.86C275.772 217.98 278.912 219.54 282.832 219.54C284.752 219.54 286.412 219.1 287.812 218.22C289.252 217.3 289.972 215.98 289.972 214.26C289.972 212.58 289.312 211.32 287.992 210.48C286.672 209.64 284.832 208.92 282.472 208.32C279.152 207.48 276.552 206.4 274.672 205.08C272.792 203.72 271.852 201.74 271.852 199.14C271.852 197.5 272.312 196.04 273.232 194.76C274.152 193.44 275.392 192.42 276.952 191.7C278.552 190.98 280.352 190.62 282.352 190.62C284.072 190.62 285.792 190.96 287.512 191.64C289.272 192.28 290.772 193.32 292.012 194.76C292.372 195.04 292.552 195.44 292.552 195.96C292.552 196.44 292.352 196.86 291.952 197.22C291.672 197.46 291.312 197.58 290.872 197.58C290.472 197.58 290.112 197.42 289.792 197.1C288.832 196.02 287.692 195.2 286.372 194.64C285.052 194.08 283.632 193.8 282.112 193.8C280.232 193.8 278.612 194.24 277.252 195.12C275.932 196 275.272 197.32 275.272 199.08C275.352 200.68 276.072 201.9 277.432 202.74C278.832 203.58 280.872 204.34 283.552 205.02C285.632 205.54 287.352 206.12 288.712 206.76C290.072 207.4 291.172 208.3 292.012 209.46C292.892 210.62 293.332 212.16 293.332 214.08C293.332 216.68 292.292 218.76 290.212 220.32C288.132 221.84 285.552 222.6 282.472 222.6C277.592 222.6 273.712 220.78 270.832 217.14ZM314.677 191.1C318.277 191.1 320.957 192.24 322.717 194.52C324.477 196.76 325.357 199.66 325.357 203.22V220.2C325.357 220.72 325.177 221.16 324.817 221.52C324.497 221.84 324.077 222 323.557 222C323.037 222 322.597 221.84 322.237 221.52C321.917 221.16 321.757 220.72 321.757 220.2V203.22C321.757 200.62 321.137 198.52 319.897 196.92C318.657 195.28 316.717 194.46 314.077 194.46C312.397 194.46 310.797 194.86 309.277 195.66C307.797 196.46 306.597 197.54 305.677 198.9C304.757 200.22 304.297 201.66 304.297 203.22V220.2C304.297 220.72 304.117 221.16 303.757 221.52C303.437 221.84 303.017 222 302.497 222C301.977 222 301.537 221.84 301.177 221.52C300.857 221.16 300.697 220.72 300.697 220.2V179.4C300.697 178.88 300.857 178.46 301.177 178.14C301.537 177.78 301.977 177.6 302.497 177.6C303.017 177.6 303.437 177.78 303.757 178.14C304.117 178.46 304.297 178.88 304.297 179.4V196.98C305.377 195.26 306.877 193.86 308.797 192.78C310.717 191.66 312.677 191.1 314.677 191.1Z" fill="black"/>
<g filter="url(#filter0_i)">
<circle cx="142" cy="79" r="79" fill="#45108A"/>
</g>
<g clip-path="url(#clip0)">
<path fill-rule="evenodd" clip-rule="evenodd" d="M124.88 98.56L110 90.88V68.8998L143.12 52.48L158 60.16V82.24L124.88 98.56Z" fill="#E0EFF9" fill-opacity="0.44"/>
<path fill-rule="evenodd" clip-rule="evenodd" d="M110 89.3146V91.2237L124.844 98.8602L157.882 82.6324V80.7232L124.844 96.9511L110 89.3146ZM110 85.9738V87.8829L124.844 95.5194L157.882 79.2922V77.3824L124.844 93.6103L110 85.9738ZM110 79.2916V81.2007L124.844 88.8372L157.882 72.61V70.7008L124.844 86.928L110 79.2916ZM110 82.6324V84.5415L124.844 92.178L157.882 75.9501V74.041L124.844 90.2695L110 82.6324ZM110 75.9508V77.8599L124.844 85.4964L157.882 69.2685V67.36L124.844 83.5872L110 75.9508ZM124.881 76.8864L110 69.1738V71.1021L124.881 78.8141L158.002 62.4256V60.4973L124.881 76.8864V76.8864ZM110 72.61V74.5191L124.881 82.1556L158.002 65.9277V64.0186L124.881 80.2464L110 72.61Z" fill="#7C1DC9"/>
<path fill-rule="evenodd" clip-rule="evenodd" d="M140.806 106.806L126 99.1686V80.4141L158.957 64.1869L174.001 71.8714V90.4314L140.806 106.806Z" fill="#E0EFF9" fill-opacity="0.44"/>
<path fill-rule="evenodd" clip-rule="evenodd" d="M126 97.3345V99.2436L140.88 106.88L174 90.6522V88.7431L140.88 104.971L126 97.3345ZM126 93.9937V95.9028L140.88 103.539L174 87.3114V85.4023L140.88 101.629L126 93.9937ZM126 87.3114V89.2205L140.88 96.857L174 80.6292V78.7201L140.88 94.9479L126 87.3114V87.3114ZM126 90.6522V92.5613L140.88 100.198L174 83.9706V82.0615L140.88 98.2887L126 90.6522V90.6522ZM126 83.9706V85.8797L140.88 93.5162L174 77.2884V75.3793L140.88 91.6071L126 83.9706V83.9706ZM140.88 88.0455L126 80.4097V82.3188L140.88 89.9553L174 73.7274V71.8183L140.88 88.0455V88.0455Z" fill="#7C1DC9"/>
<path opacity="0.1" d="M124.844 76.9056L110 69.28V91.2601L124.88 98.88L124.844 76.9056ZM140.844 88.064L126 80.4384V99.1852L140.88 106.805L140.844 88.064V88.064Z" fill="black"/>
</g>
<defs>
<filter id="filter0_i" x="63" y="0" width="163" height="163" filterUnits="userSpaceOnUse" color-interpolation-filters="sRGB">
<feFlood flood-opacity="0" result="BackgroundImageFix"/>
<feBlend mode="normal" in="SourceGraphic" in2="BackgroundImageFix" result="shape"/>
<feColorMatrix in="SourceAlpha" type="matrix" values="0 0 0 0 0 0 0 0 0 0 0 0 0 0 0 0 0 0 127 0" result="hardAlpha"/>
<feOffset dx="15" dy="15"/>
<feGaussianBlur stdDeviation="2.5"/>
<feComposite in2="hardAlpha" operator="arithmetic" k2="-1" k3="1"/>
<feColorMatrix type="matrix" values="0 0 0 0 0 0 0 0 0 0 0 0 0 0 0 0 0 0 0.25 0"/>
<feBlend mode="normal" in2="shape" result="effect1_innerShadow"/>
</filter>
<clipPath id="clip0">
<rect width="64" height="64" fill="white" transform="translate(110 48)"/>
</clipPath>
</defs>
</svg>
